<mxfile host="app.diagrams.net" modified="2023-11-14T14:54:52.781Z" agent="Mozilla/5.0 (Windows NT 10.0; Win64; x64) AppleWebKit/537.36 (KHTML, like Gecko) Chrome/119.0.0.0 Safari/537.36" etag="JDxTauZEi1Y8USTWSeR8" version="22.1.0" type="device" pages="2">
  <diagram id="ZiJ1QPWtikxDmdyrKGaZ" name="Page-1">
    <mxGraphModel dx="1120" dy="446" grid="1" gridSize="10" guides="1" tooltips="1" connect="1" arrows="1" fold="1" page="1" pageScale="1" pageWidth="850" pageHeight="1100" math="0" shadow="0">
      <root>
        <mxCell id="0" />
        <mxCell id="1" parent="0" />
        <mxCell id="mLHjseE6QlHjcq5zer_h-18" style="rounded=0;orthogonalLoop=1;jettySize=auto;html=1;entryX=0;entryY=0.5;entryDx=0;entryDy=0;endArrow=none;endFill=0;" parent="1" source="mLHjseE6QlHjcq5zer_h-16" target="mLHjseE6QlHjcq5zer_h-19" edge="1">
          <mxGeometry relative="1" as="geometry">
            <mxPoint x="210" y="330" as="targetPoint" />
          </mxGeometry>
        </mxCell>
        <mxCell id="mLHjseE6QlHjcq5zer_h-16" value="Actor" style="shape=umlActor;verticalLabelPosition=bottom;verticalAlign=top;html=1;" parent="1" vertex="1">
          <mxGeometry x="60" y="300" width="30" height="60" as="geometry" />
        </mxCell>
        <mxCell id="mLHjseE6QlHjcq5zer_h-19" value="View list team" style="ellipse;whiteSpace=wrap;html=1;" parent="1" vertex="1">
          <mxGeometry x="220" y="295" width="140" height="70" as="geometry" />
        </mxCell>
        <mxCell id="mLHjseE6QlHjcq5zer_h-28" value="Approve team" style="ellipse;whiteSpace=wrap;html=1;strokeColor=#000000;" parent="1" vertex="1">
          <mxGeometry x="470" y="190" width="140" height="70" as="geometry" />
        </mxCell>
        <mxCell id="mLHjseE6QlHjcq5zer_h-30" value="" style="endArrow=open;dashed=1;endFill=0;endSize=12;html=1;entryX=0.893;entryY=0.205;entryDx=0;entryDy=0;entryPerimeter=0;exitX=0.064;exitY=0.729;exitDx=0;exitDy=0;exitPerimeter=0;" parent="1" source="mLHjseE6QlHjcq5zer_h-28" target="mLHjseE6QlHjcq5zer_h-19" edge="1">
          <mxGeometry width="160" relative="1" as="geometry">
            <mxPoint x="360" y="190" as="sourcePoint" />
            <mxPoint x="440" y="290" as="targetPoint" />
          </mxGeometry>
        </mxCell>
        <mxCell id="mLHjseE6QlHjcq5zer_h-38" value="Delete team" style="ellipse;whiteSpace=wrap;html=1;strokeColor=#000000;" parent="1" vertex="1">
          <mxGeometry x="510" y="300" width="140" height="70" as="geometry" />
        </mxCell>
        <mxCell id="mLHjseE6QlHjcq5zer_h-31" value="&amp;lt;&amp;lt;include&amp;gt;&amp;gt;" style="text;html=1;align=center;verticalAlign=middle;resizable=0;points=[];autosize=1;" parent="1" vertex="1">
          <mxGeometry x="360" y="240" width="90" height="30" as="geometry" />
        </mxCell>
        <mxCell id="oH9DwC69ncxG3j2xg8Vp-1" value="" style="endArrow=open;dashed=1;endFill=0;endSize=12;html=1;entryX=1;entryY=0.5;entryDx=0;entryDy=0;exitX=0;exitY=0.5;exitDx=0;exitDy=0;" parent="1" source="mLHjseE6QlHjcq5zer_h-38" target="mLHjseE6QlHjcq5zer_h-19" edge="1">
          <mxGeometry width="160" relative="1" as="geometry">
            <mxPoint x="460" y="370" as="sourcePoint" />
            <mxPoint x="500" y="340" as="targetPoint" />
          </mxGeometry>
        </mxCell>
        <mxCell id="oH9DwC69ncxG3j2xg8Vp-2" value="&amp;lt;&amp;lt;include&amp;gt;&amp;gt;" style="text;html=1;align=center;verticalAlign=middle;resizable=0;points=[];autosize=1;" parent="1" vertex="1">
          <mxGeometry x="400" y="310" width="90" height="30" as="geometry" />
        </mxCell>
        <mxCell id="oH9DwC69ncxG3j2xg8Vp-4" value="Create deadline" style="ellipse;whiteSpace=wrap;html=1;strokeColor=#000000;" parent="1" vertex="1">
          <mxGeometry x="500" y="400" width="140" height="70" as="geometry" />
        </mxCell>
        <mxCell id="oH9DwC69ncxG3j2xg8Vp-5" value="" style="endArrow=open;dashed=1;endFill=0;endSize=12;html=1;entryX=1;entryY=1;entryDx=0;entryDy=0;exitX=0;exitY=0.5;exitDx=0;exitDy=0;" parent="1" source="oH9DwC69ncxG3j2xg8Vp-4" target="mLHjseE6QlHjcq5zer_h-19" edge="1">
          <mxGeometry width="160" relative="1" as="geometry">
            <mxPoint x="470" y="350" as="sourcePoint" />
            <mxPoint x="480" y="420" as="targetPoint" />
          </mxGeometry>
        </mxCell>
        <mxCell id="oH9DwC69ncxG3j2xg8Vp-6" value="&amp;lt;&amp;lt;include&amp;gt;&amp;gt;" style="text;html=1;align=center;verticalAlign=middle;resizable=0;points=[];autosize=1;" parent="1" vertex="1">
          <mxGeometry x="420" y="380" width="90" height="30" as="geometry" />
        </mxCell>
        <mxCell id="oH9DwC69ncxG3j2xg8Vp-7" value="Show member" style="ellipse;whiteSpace=wrap;html=1;strokeColor=#000000;" parent="1" vertex="1">
          <mxGeometry x="432.98" y="480.03" width="140" height="70" as="geometry" />
        </mxCell>
        <mxCell id="oH9DwC69ncxG3j2xg8Vp-8" value="" style="endArrow=open;dashed=1;endFill=0;endSize=12;html=1;exitX=0;exitY=0;exitDx=0;exitDy=0;entryX=0.624;entryY=0.99;entryDx=0;entryDy=0;entryPerimeter=0;" parent="1" source="oH9DwC69ncxG3j2xg8Vp-7" target="mLHjseE6QlHjcq5zer_h-19" edge="1">
          <mxGeometry width="160" relative="1" as="geometry">
            <mxPoint x="320" y="365" as="sourcePoint" />
            <mxPoint x="280" y="390" as="targetPoint" />
          </mxGeometry>
        </mxCell>
        <mxCell id="oH9DwC69ncxG3j2xg8Vp-9" value="&amp;lt;&amp;lt;include&amp;gt;&amp;gt;" style="text;html=1;align=center;verticalAlign=middle;resizable=0;points=[];autosize=1;" parent="1" vertex="1">
          <mxGeometry x="310" y="440" width="90" height="30" as="geometry" />
        </mxCell>
        <mxCell id="vrM9j1D7RLGjQ5rILYRF-1" value="Login" style="ellipse;whiteSpace=wrap;html=1;strokeColor=#000000;" parent="1" vertex="1">
          <mxGeometry x="390" y="110" width="140" height="70" as="geometry" />
        </mxCell>
        <mxCell id="vrM9j1D7RLGjQ5rILYRF-2" value="" style="endArrow=open;dashed=1;endFill=0;endSize=12;html=1;entryX=0;entryY=1;entryDx=0;entryDy=0;exitX=0.621;exitY=0.029;exitDx=0;exitDy=0;exitPerimeter=0;" parent="1" source="mLHjseE6QlHjcq5zer_h-19" target="vrM9j1D7RLGjQ5rILYRF-1" edge="1">
          <mxGeometry width="160" relative="1" as="geometry">
            <mxPoint x="369" y="191" as="sourcePoint" />
            <mxPoint x="238" y="258" as="targetPoint" />
          </mxGeometry>
        </mxCell>
        <mxCell id="vrM9j1D7RLGjQ5rILYRF-3" value="&amp;lt;&amp;lt;include&amp;gt;&amp;gt;" style="text;html=1;align=center;verticalAlign=middle;resizable=0;points=[];autosize=1;" parent="1" vertex="1">
          <mxGeometry x="280" y="200" width="90" height="30" as="geometry" />
        </mxCell>
        <mxCell id="vrM9j1D7RLGjQ5rILYRF-4" value="View List Group" style="shape=umlFrame;whiteSpace=wrap;html=1;pointerEvents=0;" parent="1" vertex="1">
          <mxGeometry x="140" y="110" width="560" height="450" as="geometry" />
        </mxCell>
      </root>
    </mxGraphModel>
  </diagram>
  <diagram id="HDtFS_1EIlvpL0U_tzsU" name="Trang-2">
    <mxGraphModel dx="1120" dy="446" grid="1" gridSize="10" guides="1" tooltips="1" connect="1" arrows="1" fold="1" page="1" pageScale="1" pageWidth="827" pageHeight="1169" math="0" shadow="0">
      <root>
        <mxCell id="0" />
        <mxCell id="1" parent="0" />
      </root>
    </mxGraphModel>
  </diagram>
</mxfile>
